<svg width="200" height="200" viewBox="0 0 200 200" fill="none" xmlns="http://www.w3.org/2000/svg">
<g clip-path="url(#clip0_41_2)">
<path d="M194 0H6C2.68629 0 0 2.68629 0 5.99999V194C0 197.314 2.68629 200 5.99999 200H194C197.314 200 200 197.314 200 194V6C200 2.68629 197.314 0 194 0Z" fill="url(#paint0_linear_41_2)"/>
<path d="M161.099 94.9766V154.898C155.695 160.918 147.794 165.774 137.397 169.468C126.999 173.162 115.576 175.009 103.127 175.009C84.0421 175.009 68.7881 169.16 57.3647 157.463C45.9413 145.766 39.8192 129.486 38.9984 108.623L38.8958 96.0027C38.8958 81.6379 41.4267 69.0859 46.4886 58.3465C51.6188 47.6756 58.9038 39.433 68.3435 33.6187C77.7832 27.8728 88.7277 24.9998 101.177 24.9998C119.304 24.9998 133.395 29.1383 143.45 37.4151C153.506 45.7603 159.388 58.1755 161.099 74.6608H127.136C125.973 66.5208 123.374 60.7065 119.338 57.2179C115.371 53.7293 109.693 51.985 102.306 51.985C93.4818 51.985 86.6756 55.7472 81.8874 63.2716C77.0991 70.7276 74.6708 81.3985 74.6024 95.2844V104.108C74.6024 118.678 77.0649 129.623 81.99 136.942C86.9834 144.261 94.8156 147.921 105.487 147.921C114.653 147.921 121.493 145.869 126.008 141.765V119.191H101.485V94.9766H161.099Z" fill="white" stroke="white" stroke-width="1.53908"/>
</g>
<defs>
<linearGradient id="paint0_linear_41_2" x1="0.5" y1="-0.207106" x2="141.921" y2="141.214" gradientUnits="userSpaceOnUse">
<stop stop-color="#0C6DFF"/>
<stop offset="1" stop-color="#0C6DFF"/>
</linearGradient>
<clipPath id="clip0_41_2">
<rect width="200" height="200" rx="42" fill="white"/>
</clipPath>
</defs>
</svg>
